<mxfile host="65bd71144e">
    <diagram id="IlFh3iXxon7l4xTyrN5I" name="MCD">
        <mxGraphModel dx="730" dy="391" grid="1" gridSize="10" guides="1" tooltips="1" connect="1" arrows="1" fold="1" page="1" pageScale="1" pageWidth="1200" pageHeight="1920" background="none" math="0" shadow="0">
            <root>
                <mxCell id="0"/>
                <mxCell id="1" parent="0"/>
                <mxCell id="57" value="" style="shape=filledEdge;curved=0;rounded=0;fixDash=1;endArrow=none;strokeWidth=4;fillColor=#ffffff;edgeStyle=orthogonalEdgeStyle;html=1;" parent="1" source="40" target="22" edge="1">
                    <mxGeometry width="60" height="40" relative="1" as="geometry">
                        <mxPoint x="650" y="282" as="sourcePoint"/>
                        <mxPoint x="1019.94" y="239" as="targetPoint"/>
                        <Array as="points">
                            <mxPoint x="1020" y="400"/>
                        </Array>
                    </mxGeometry>
                </mxCell>
                <mxCell id="7" value="User" style="swimlane;fontStyle=0;childLayout=stackLayout;horizontal=1;startSize=40;horizontalStack=0;resizeParent=1;resizeParentMax=0;resizeLast=0;collapsible=1;marginBottom=0;whiteSpace=wrap;html=1;swimlaneFillColor=none;" parent="1" vertex="1">
                    <mxGeometry x="10" y="50" width="170" height="370" as="geometry">
                        <mxRectangle x="10" y="50" width="70" height="30" as="alternateBounds"/>
                    </mxGeometry>
                </mxCell>
                <mxCell id="8" value="id" style="text;strokeColor=none;fillColor=none;align=left;verticalAlign=middle;spacingLeft=4;spacingRight=4;overflow=hidden;points=[[0,0.5],[1,0.5]];portConstraint=eastwest;rotatable=0;whiteSpace=wrap;html=1;" parent="7" vertex="1">
                    <mxGeometry y="40" width="170" height="30" as="geometry"/>
                </mxCell>
                <mxCell id="69" value="firstName" style="text;strokeColor=none;fillColor=none;align=left;verticalAlign=middle;spacingLeft=4;spacingRight=4;overflow=hidden;points=[[0,0.5],[1,0.5]];portConstraint=eastwest;rotatable=0;whiteSpace=wrap;html=1;" parent="7" vertex="1">
                    <mxGeometry y="70" width="170" height="30" as="geometry"/>
                </mxCell>
                <mxCell id="9" value="lastName" style="text;strokeColor=none;fillColor=none;align=left;verticalAlign=middle;spacingLeft=4;spacingRight=4;overflow=hidden;points=[[0,0.5],[1,0.5]];portConstraint=eastwest;rotatable=0;whiteSpace=wrap;html=1;" parent="7" vertex="1">
                    <mxGeometry y="100" width="170" height="30" as="geometry"/>
                </mxCell>
                <mxCell id="12" value="password" style="text;strokeColor=none;fillColor=none;align=left;verticalAlign=middle;spacingLeft=4;spacingRight=4;overflow=hidden;points=[[0,0.5],[1,0.5]];portConstraint=eastwest;rotatable=0;whiteSpace=wrap;html=1;" parent="7" vertex="1">
                    <mxGeometry y="130" width="170" height="30" as="geometry"/>
                </mxCell>
                <mxCell id="10" value="email" style="text;strokeColor=none;fillColor=none;align=left;verticalAlign=middle;spacingLeft=4;spacingRight=4;overflow=hidden;points=[[0,0.5],[1,0.5]];portConstraint=eastwest;rotatable=0;whiteSpace=wrap;html=1;" parent="7" vertex="1">
                    <mxGeometry y="160" width="170" height="30" as="geometry"/>
                </mxCell>
                <mxCell id="13" value="imageUrl" style="text;strokeColor=none;fillColor=none;align=left;verticalAlign=middle;spacingLeft=4;spacingRight=4;overflow=hidden;points=[[0,0.5],[1,0.5]];portConstraint=eastwest;rotatable=0;whiteSpace=wrap;html=1;" parent="7" vertex="1">
                    <mxGeometry y="190" width="170" height="30" as="geometry"/>
                </mxCell>
                <mxCell id="67" value="createdAt" style="text;strokeColor=none;fillColor=none;align=left;verticalAlign=middle;spacingLeft=4;spacingRight=4;overflow=hidden;points=[[0,0.5],[1,0.5]];portConstraint=eastwest;rotatable=0;whiteSpace=wrap;html=1;" parent="7" vertex="1">
                    <mxGeometry y="220" width="170" height="30" as="geometry"/>
                </mxCell>
                <mxCell id="68" value="udatedAt" style="text;strokeColor=none;fillColor=none;align=left;verticalAlign=middle;spacingLeft=4;spacingRight=4;overflow=hidden;points=[[0,0.5],[1,0.5]];portConstraint=eastwest;rotatable=0;whiteSpace=wrap;html=1;" parent="7" vertex="1">
                    <mxGeometry y="250" width="170" height="30" as="geometry"/>
                </mxCell>
                <mxCell id="70" value="deleted" style="text;strokeColor=none;fillColor=none;align=left;verticalAlign=middle;spacingLeft=4;spacingRight=4;overflow=hidden;points=[[0,0.5],[1,0.5]];portConstraint=eastwest;rotatable=0;whiteSpace=wrap;html=1;" parent="7" vertex="1">
                    <mxGeometry y="280" width="170" height="30" as="geometry"/>
                </mxCell>
                <mxCell id="63" value="admin" style="text;strokeColor=none;fillColor=none;align=left;verticalAlign=middle;spacingLeft=4;spacingRight=4;overflow=hidden;points=[[0,0.5],[1,0.5]];portConstraint=eastwest;rotatable=0;whiteSpace=wrap;html=1;" parent="7" vertex="1">
                    <mxGeometry y="310" width="170" height="30" as="geometry"/>
                </mxCell>
                <mxCell id="66" value="status" style="text;strokeColor=none;fillColor=none;align=left;verticalAlign=middle;spacingLeft=4;spacingRight=4;overflow=hidden;points=[[0,0.5],[1,0.5]];portConstraint=eastwest;rotatable=0;whiteSpace=wrap;html=1;" parent="7" vertex="1">
                    <mxGeometry y="340" width="170" height="30" as="geometry"/>
                </mxCell>
                <mxCell id="14" value="posts" style="swimlane;fontStyle=0;childLayout=stackLayout;horizontal=1;startSize=30;horizontalStack=0;resizeParent=1;resizeParentMax=0;resizeLast=0;collapsible=1;marginBottom=0;whiteSpace=wrap;html=1;" parent="1" vertex="1">
                    <mxGeometry x="520" y="49" width="140" height="210" as="geometry"/>
                </mxCell>
                <mxCell id="71" value="id" style="text;strokeColor=none;fillColor=none;align=left;verticalAlign=middle;spacingLeft=4;spacingRight=4;overflow=hidden;points=[[0,0.5],[1,0.5]];portConstraint=eastwest;rotatable=0;whiteSpace=wrap;html=1;" parent="14" vertex="1">
                    <mxGeometry y="30" width="140" height="30" as="geometry"/>
                </mxCell>
                <mxCell id="72" value="userId" style="text;strokeColor=none;fillColor=none;align=left;verticalAlign=middle;spacingLeft=4;spacingRight=4;overflow=hidden;points=[[0,0.5],[1,0.5]];portConstraint=eastwest;rotatable=0;whiteSpace=wrap;html=1;" parent="14" vertex="1">
                    <mxGeometry y="60" width="140" height="30" as="geometry"/>
                </mxCell>
                <mxCell id="15" value="content" style="text;strokeColor=none;fillColor=none;align=left;verticalAlign=middle;spacingLeft=4;spacingRight=4;overflow=hidden;points=[[0,0.5],[1,0.5]];portConstraint=eastwest;rotatable=0;whiteSpace=wrap;html=1;" parent="14" vertex="1">
                    <mxGeometry y="90" width="140" height="30" as="geometry"/>
                </mxCell>
                <mxCell id="17" value="imageUrl" style="text;strokeColor=none;fillColor=none;align=left;verticalAlign=middle;spacingLeft=4;spacingRight=4;overflow=hidden;points=[[0,0.5],[1,0.5]];portConstraint=eastwest;rotatable=0;whiteSpace=wrap;html=1;" parent="14" vertex="1">
                    <mxGeometry y="120" width="140" height="30" as="geometry"/>
                </mxCell>
                <mxCell id="16" value="createdAt" style="text;strokeColor=none;fillColor=none;align=left;verticalAlign=middle;spacingLeft=4;spacingRight=4;overflow=hidden;points=[[0,0.5],[1,0.5]];portConstraint=eastwest;rotatable=0;whiteSpace=wrap;html=1;" parent="14" vertex="1">
                    <mxGeometry y="150" width="140" height="30" as="geometry"/>
                </mxCell>
                <mxCell id="73" value="updatedAt" style="text;strokeColor=none;fillColor=none;align=left;verticalAlign=middle;spacingLeft=4;spacingRight=4;overflow=hidden;points=[[0,0.5],[1,0.5]];portConstraint=eastwest;rotatable=0;whiteSpace=wrap;html=1;" parent="14" vertex="1">
                    <mxGeometry y="180" width="140" height="30" as="geometry"/>
                </mxCell>
                <mxCell id="18" value="channels" style="swimlane;fontStyle=0;childLayout=stackLayout;horizontal=1;startSize=30;horizontalStack=0;resizeParent=1;resizeParentMax=0;resizeLast=0;collapsible=1;marginBottom=0;whiteSpace=wrap;html=1;" parent="1" vertex="1">
                    <mxGeometry x="940" y="50" width="140" height="150" as="geometry"/>
                </mxCell>
                <mxCell id="19" value="name" style="text;strokeColor=none;fillColor=none;align=left;verticalAlign=middle;spacingLeft=4;spacingRight=4;overflow=hidden;points=[[0,0.5],[1,0.5]];portConstraint=eastwest;rotatable=0;whiteSpace=wrap;html=1;" parent="18" vertex="1">
                    <mxGeometry y="30" width="140" height="30" as="geometry"/>
                </mxCell>
                <mxCell id="20" value="creteadAt" style="text;strokeColor=none;fillColor=none;align=left;verticalAlign=middle;spacingLeft=4;spacingRight=4;overflow=hidden;points=[[0,0.5],[1,0.5]];portConstraint=eastwest;rotatable=0;whiteSpace=wrap;html=1;" parent="18" vertex="1">
                    <mxGeometry y="60" width="140" height="30" as="geometry"/>
                </mxCell>
                <mxCell id="21" value="private" style="text;strokeColor=none;fillColor=none;align=left;verticalAlign=middle;spacingLeft=4;spacingRight=4;overflow=hidden;points=[[0,0.5],[1,0.5]];portConstraint=eastwest;rotatable=0;whiteSpace=wrap;html=1;" parent="18" vertex="1">
                    <mxGeometry y="90" width="140" height="30" as="geometry"/>
                </mxCell>
                <mxCell id="22" value="public" style="text;strokeColor=none;fillColor=none;align=left;verticalAlign=middle;spacingLeft=4;spacingRight=4;overflow=hidden;points=[[0,0.5],[1,0.5]];portConstraint=eastwest;rotatable=0;whiteSpace=wrap;html=1;" parent="18" vertex="1">
                    <mxGeometry y="120" width="140" height="30" as="geometry"/>
                </mxCell>
                <mxCell id="23" value="Send" style="ellipse;whiteSpace=wrap;html=1;" parent="1" vertex="1">
                    <mxGeometry x="260" y="85" width="120" height="80" as="geometry"/>
                </mxCell>
                <mxCell id="29" value="0.n" style="text;strokeColor=none;fillColor=none;align=left;verticalAlign=top;spacingLeft=4;spacingRight=4;overflow=hidden;rotatable=0;points=[[0,0.5],[1,0.5]];portConstraint=eastwest;whiteSpace=wrap;html=1;" parent="1" vertex="1">
                    <mxGeometry x="180" y="94" width="30" height="26" as="geometry"/>
                </mxCell>
                <mxCell id="31" value="1.1" style="text;strokeColor=none;fillColor=none;align=left;verticalAlign=top;spacingLeft=4;spacingRight=4;overflow=hidden;rotatable=0;points=[[0,0.5],[1,0.5]];portConstraint=eastwest;whiteSpace=wrap;html=1;" parent="1" vertex="1">
                    <mxGeometry x="492" y="100" width="30" height="26" as="geometry"/>
                </mxCell>
                <mxCell id="32" value="" style="line;strokeWidth=4;html=1;perimeter=backbonePerimeter;points=[];outlineConnect=0;strokeColor=default;fillColor=default;" parent="1" vertex="1">
                    <mxGeometry x="180" y="120" width="80" height="10" as="geometry"/>
                </mxCell>
                <mxCell id="33" value="" style="line;strokeWidth=4;html=1;perimeter=backbonePerimeter;points=[];outlineConnect=0;strokeColor=default;fillColor=default;" parent="1" vertex="1">
                    <mxGeometry x="380" y="120" width="140" height="10" as="geometry"/>
                </mxCell>
                <mxCell id="34" value="" style="line;strokeWidth=4;html=1;perimeter=backbonePerimeter;points=[];outlineConnect=0;strokeColor=default;fillColor=default;" parent="1" vertex="1">
                    <mxGeometry x="660" y="119" width="280" height="10" as="geometry"/>
                </mxCell>
                <mxCell id="36" value="Belong" style="ellipse;whiteSpace=wrap;html=1;" parent="1" vertex="1">
                    <mxGeometry x="740" y="85" width="120" height="80" as="geometry"/>
                </mxCell>
                <mxCell id="37" value="1.1" style="text;strokeColor=none;fillColor=none;align=left;verticalAlign=top;spacingLeft=4;spacingRight=4;overflow=hidden;rotatable=0;points=[[0,0.5],[1,0.5]];portConstraint=eastwest;whiteSpace=wrap;html=1;" parent="1" vertex="1">
                    <mxGeometry x="660" y="100" width="30" height="26" as="geometry"/>
                </mxCell>
                <mxCell id="38" value="0.n" style="text;strokeColor=none;fillColor=none;align=left;verticalAlign=top;spacingLeft=4;spacingRight=4;overflow=hidden;rotatable=0;points=[[0,0.5],[1,0.5]];portConstraint=eastwest;whiteSpace=wrap;html=1;" parent="1" vertex="1">
                    <mxGeometry x="910" y="96" width="30" height="26" as="geometry"/>
                </mxCell>
                <mxCell id="40" value="Join" style="ellipse;whiteSpace=wrap;html=1;strokeColor=default;fillColor=default;" parent="1" vertex="1">
                    <mxGeometry x="560" y="360" width="120" height="80" as="geometry"/>
                </mxCell>
                <mxCell id="42" value="0.n" style="text;strokeColor=none;fillColor=none;align=left;verticalAlign=top;spacingLeft=4;spacingRight=4;overflow=hidden;rotatable=0;points=[[0,0.5],[1,0.5]];portConstraint=eastwest;whiteSpace=wrap;html=1;" parent="1" vertex="1">
                    <mxGeometry x="180" y="364" width="30" height="26" as="geometry"/>
                </mxCell>
                <mxCell id="50" value="" style="line;strokeWidth=4;html=1;perimeter=backbonePerimeter;points=[];outlineConnect=0;strokeColor=default;fillColor=default;" parent="1" vertex="1">
                    <mxGeometry x="180" y="390" width="380" height="16" as="geometry"/>
                </mxCell>
                <mxCell id="59" value="1.n" style="text;strokeColor=none;fillColor=none;align=left;verticalAlign=top;spacingLeft=4;spacingRight=4;overflow=hidden;rotatable=0;points=[[0,0.5],[1,0.5]];portConstraint=eastwest;whiteSpace=wrap;html=1;" parent="1" vertex="1">
                    <mxGeometry x="970" y="360" width="30" height="26" as="geometry"/>
                </mxCell>
            </root>
        </mxGraphModel>
    </diagram>
    <diagram id="tkrQ4MpYTok06KhleMXD" name="MLD">
        <mxGraphModel dx="730" dy="391" grid="1" gridSize="10" guides="1" tooltips="1" connect="1" arrows="1" fold="1" page="1" pageScale="1" pageWidth="1200" pageHeight="1920" math="0" shadow="0">
            <root>
                <mxCell id="0"/>
                <mxCell id="1" parent="0"/>
                <mxCell id="lYEQsUIjW6Sv9lBk3dD8-2" value="Users" style="swimlane;fontStyle=0;childLayout=stackLayout;horizontal=1;startSize=30;horizontalStack=0;resizeParent=1;resizeParentMax=0;resizeLast=0;collapsible=1;marginBottom=0;whiteSpace=wrap;html=1;" parent="1" vertex="1">
                    <mxGeometry x="80" y="40" width="160" height="360" as="geometry"/>
                </mxCell>
                <mxCell id="lYEQsUIjW6Sv9lBk3dD8-3" value="&lt;span data-lucid-content=&quot;{&amp;quot;t&amp;quot;:&amp;quot;id : int (11)  PK&amp;quot;,&amp;quot;m&amp;quot;:[{&amp;quot;s&amp;quot;:0,&amp;quot;n&amp;quot;:&amp;quot;a&amp;quot;,&amp;quot;v&amp;quot;:&amp;quot;center&amp;quot;},{&amp;quot;s&amp;quot;:0,&amp;quot;n&amp;quot;:&amp;quot;fl&amp;quot;,&amp;quot;v&amp;quot;:11.2},{&amp;quot;s&amp;quot;:0,&amp;quot;n&amp;quot;:&amp;quot;il&amp;quot;,&amp;quot;v&amp;quot;:11.2},{&amp;quot;s&amp;quot;:0,&amp;quot;n&amp;quot;:&amp;quot;ir&amp;quot;,&amp;quot;v&amp;quot;:11.2},{&amp;quot;s&amp;quot;:0,&amp;quot;n&amp;quot;:&amp;quot;mt&amp;quot;,&amp;quot;v&amp;quot;:3.2},{&amp;quot;s&amp;quot;:0,&amp;quot;n&amp;quot;:&amp;quot;c&amp;quot;,&amp;quot;v&amp;quot;:&amp;quot;#000000ff&amp;quot;,&amp;quot;e&amp;quot;:17},{&amp;quot;s&amp;quot;:0,&amp;quot;n&amp;quot;:&amp;quot;fc&amp;quot;,&amp;quot;v&amp;quot;:&amp;quot;Regular&amp;quot;,&amp;quot;e&amp;quot;:17},{&amp;quot;s&amp;quot;:0,&amp;quot;n&amp;quot;:&amp;quot;fid&amp;quot;,&amp;quot;v&amp;quot;:2,&amp;quot;e&amp;quot;:17},{&amp;quot;s&amp;quot;:0,&amp;quot;n&amp;quot;:&amp;quot;s&amp;quot;,&amp;quot;v&amp;quot;:17.77777777777778,&amp;quot;e&amp;quot;:17}]}&quot; data-lucid-type=&quot;application/vnd.lucid.text&quot;&gt;&lt;span style=&quot;font-size: 13.3333px;&quot;&gt;&lt;font style=&quot;&quot; color=&quot;#ffffff&quot;&gt;id : int (11)  PK&lt;/font&gt;&lt;/span&gt;&lt;/span&gt;" style="text;strokeColor=none;fillColor=none;align=left;verticalAlign=middle;spacingLeft=4;spacingRight=4;overflow=hidden;points=[[0,0.5],[1,0.5]];portConstraint=eastwest;rotatable=0;whiteSpace=wrap;html=1;" parent="lYEQsUIjW6Sv9lBk3dD8-2" vertex="1">
                    <mxGeometry y="30" width="160" height="30" as="geometry"/>
                </mxCell>
                <mxCell id="lYEQsUIjW6Sv9lBk3dD8-4" value="&lt;span data-lucid-content=&quot;{&amp;quot;t&amp;quot;:&amp;quot;firstname: varchar(255)&amp;quot;,&amp;quot;m&amp;quot;:[{&amp;quot;s&amp;quot;:0,&amp;quot;n&amp;quot;:&amp;quot;a&amp;quot;,&amp;quot;v&amp;quot;:&amp;quot;center&amp;quot;},{&amp;quot;s&amp;quot;:0,&amp;quot;n&amp;quot;:&amp;quot;fl&amp;quot;,&amp;quot;v&amp;quot;:11.2},{&amp;quot;s&amp;quot;:0,&amp;quot;n&amp;quot;:&amp;quot;il&amp;quot;,&amp;quot;v&amp;quot;:11.2},{&amp;quot;s&amp;quot;:0,&amp;quot;n&amp;quot;:&amp;quot;ir&amp;quot;,&amp;quot;v&amp;quot;:11.2},{&amp;quot;s&amp;quot;:0,&amp;quot;n&amp;quot;:&amp;quot;mt&amp;quot;,&amp;quot;v&amp;quot;:3.2},{&amp;quot;s&amp;quot;:0,&amp;quot;n&amp;quot;:&amp;quot;c&amp;quot;,&amp;quot;v&amp;quot;:&amp;quot;#000000ff&amp;quot;,&amp;quot;e&amp;quot;:23},{&amp;quot;s&amp;quot;:0,&amp;quot;n&amp;quot;:&amp;quot;fc&amp;quot;,&amp;quot;v&amp;quot;:&amp;quot;Regular&amp;quot;,&amp;quot;e&amp;quot;:23},{&amp;quot;s&amp;quot;:0,&amp;quot;n&amp;quot;:&amp;quot;fid&amp;quot;,&amp;quot;v&amp;quot;:2,&amp;quot;e&amp;quot;:23},{&amp;quot;s&amp;quot;:0,&amp;quot;n&amp;quot;:&amp;quot;s&amp;quot;,&amp;quot;v&amp;quot;:17.77777777777778,&amp;quot;e&amp;quot;:23}]}&quot; data-lucid-type=&quot;application/vnd.lucid.text&quot;&gt;&lt;font color=&quot;#ffffff&quot;&gt;&lt;span style=&quot;font-size: 13.3333px;&quot;&gt;firstName:&lt;/span&gt;&lt;span style=&quot;font-size: 13.3333px;&quot;&gt; &lt;/span&gt;&lt;span style=&quot;font-size: 13.3333px;&quot;&gt;varchar(255)&lt;/span&gt;&lt;/font&gt;&lt;/span&gt;" style="text;strokeColor=none;fillColor=none;align=left;verticalAlign=middle;spacingLeft=4;spacingRight=4;overflow=hidden;points=[[0,0.5],[1,0.5]];portConstraint=eastwest;rotatable=0;whiteSpace=wrap;html=1;" parent="lYEQsUIjW6Sv9lBk3dD8-2" vertex="1">
                    <mxGeometry y="60" width="160" height="30" as="geometry"/>
                </mxCell>
                <mxCell id="lYEQsUIjW6Sv9lBk3dD8-6" value="&lt;span data-lucid-content=&quot;{&amp;quot;t&amp;quot;:&amp;quot;firstname: varchar(255)&amp;quot;,&amp;quot;m&amp;quot;:[{&amp;quot;s&amp;quot;:0,&amp;quot;n&amp;quot;:&amp;quot;a&amp;quot;,&amp;quot;v&amp;quot;:&amp;quot;center&amp;quot;},{&amp;quot;s&amp;quot;:0,&amp;quot;n&amp;quot;:&amp;quot;fl&amp;quot;,&amp;quot;v&amp;quot;:11.2},{&amp;quot;s&amp;quot;:0,&amp;quot;n&amp;quot;:&amp;quot;il&amp;quot;,&amp;quot;v&amp;quot;:11.2},{&amp;quot;s&amp;quot;:0,&amp;quot;n&amp;quot;:&amp;quot;ir&amp;quot;,&amp;quot;v&amp;quot;:11.2},{&amp;quot;s&amp;quot;:0,&amp;quot;n&amp;quot;:&amp;quot;mt&amp;quot;,&amp;quot;v&amp;quot;:3.2},{&amp;quot;s&amp;quot;:0,&amp;quot;n&amp;quot;:&amp;quot;c&amp;quot;,&amp;quot;v&amp;quot;:&amp;quot;#000000ff&amp;quot;,&amp;quot;e&amp;quot;:23},{&amp;quot;s&amp;quot;:0,&amp;quot;n&amp;quot;:&amp;quot;fc&amp;quot;,&amp;quot;v&amp;quot;:&amp;quot;Regular&amp;quot;,&amp;quot;e&amp;quot;:23},{&amp;quot;s&amp;quot;:0,&amp;quot;n&amp;quot;:&amp;quot;fid&amp;quot;,&amp;quot;v&amp;quot;:2,&amp;quot;e&amp;quot;:23},{&amp;quot;s&amp;quot;:0,&amp;quot;n&amp;quot;:&amp;quot;s&amp;quot;,&amp;quot;v&amp;quot;:17.77777777777778,&amp;quot;e&amp;quot;:23}]}&quot; data-lucid-type=&quot;application/vnd.lucid.text&quot;&gt;&lt;font color=&quot;#ffffff&quot;&gt;&lt;span style=&quot;font-size: 13.3333px;&quot;&gt;lastName:&lt;/span&gt;&lt;span style=&quot;font-size: 13.3333px;&quot;&gt; &lt;/span&gt;&lt;span style=&quot;font-size: 13.3333px;&quot;&gt;varchar(255)&lt;/span&gt;&lt;/font&gt;&lt;/span&gt;" style="text;strokeColor=none;fillColor=none;align=left;verticalAlign=middle;spacingLeft=4;spacingRight=4;overflow=hidden;points=[[0,0.5],[1,0.5]];portConstraint=eastwest;rotatable=0;whiteSpace=wrap;html=1;" parent="lYEQsUIjW6Sv9lBk3dD8-2" vertex="1">
                    <mxGeometry y="90" width="160" height="30" as="geometry"/>
                </mxCell>
                <mxCell id="lYEQsUIjW6Sv9lBk3dD8-7" value="&lt;span data-lucid-content=&quot;{&amp;quot;t&amp;quot;:&amp;quot;firstname: varchar(255)&amp;quot;,&amp;quot;m&amp;quot;:[{&amp;quot;s&amp;quot;:0,&amp;quot;n&amp;quot;:&amp;quot;a&amp;quot;,&amp;quot;v&amp;quot;:&amp;quot;center&amp;quot;},{&amp;quot;s&amp;quot;:0,&amp;quot;n&amp;quot;:&amp;quot;fl&amp;quot;,&amp;quot;v&amp;quot;:11.2},{&amp;quot;s&amp;quot;:0,&amp;quot;n&amp;quot;:&amp;quot;il&amp;quot;,&amp;quot;v&amp;quot;:11.2},{&amp;quot;s&amp;quot;:0,&amp;quot;n&amp;quot;:&amp;quot;ir&amp;quot;,&amp;quot;v&amp;quot;:11.2},{&amp;quot;s&amp;quot;:0,&amp;quot;n&amp;quot;:&amp;quot;mt&amp;quot;,&amp;quot;v&amp;quot;:3.2},{&amp;quot;s&amp;quot;:0,&amp;quot;n&amp;quot;:&amp;quot;c&amp;quot;,&amp;quot;v&amp;quot;:&amp;quot;#000000ff&amp;quot;,&amp;quot;e&amp;quot;:23},{&amp;quot;s&amp;quot;:0,&amp;quot;n&amp;quot;:&amp;quot;fc&amp;quot;,&amp;quot;v&amp;quot;:&amp;quot;Regular&amp;quot;,&amp;quot;e&amp;quot;:23},{&amp;quot;s&amp;quot;:0,&amp;quot;n&amp;quot;:&amp;quot;fid&amp;quot;,&amp;quot;v&amp;quot;:2,&amp;quot;e&amp;quot;:23},{&amp;quot;s&amp;quot;:0,&amp;quot;n&amp;quot;:&amp;quot;s&amp;quot;,&amp;quot;v&amp;quot;:17.77777777777778,&amp;quot;e&amp;quot;:23}]}&quot; data-lucid-type=&quot;application/vnd.lucid.text&quot;&gt;&lt;font color=&quot;#ffffff&quot;&gt;&lt;span style=&quot;font-size: 13.3333px;&quot;&gt;email:&lt;/span&gt;&lt;span style=&quot;font-size: 13.3333px;&quot;&gt; &lt;/span&gt;&lt;span style=&quot;font-size: 13.3333px;&quot;&gt;varchar(255)&lt;/span&gt;&lt;/font&gt;&lt;/span&gt;" style="text;strokeColor=none;fillColor=none;align=left;verticalAlign=middle;spacingLeft=4;spacingRight=4;overflow=hidden;points=[[0,0.5],[1,0.5]];portConstraint=eastwest;rotatable=0;whiteSpace=wrap;html=1;" parent="lYEQsUIjW6Sv9lBk3dD8-2" vertex="1">
                    <mxGeometry y="120" width="160" height="30" as="geometry"/>
                </mxCell>
                <mxCell id="lYEQsUIjW6Sv9lBk3dD8-8" value="&lt;span data-lucid-content=&quot;{&amp;quot;t&amp;quot;:&amp;quot;firstname: varchar(255)&amp;quot;,&amp;quot;m&amp;quot;:[{&amp;quot;s&amp;quot;:0,&amp;quot;n&amp;quot;:&amp;quot;a&amp;quot;,&amp;quot;v&amp;quot;:&amp;quot;center&amp;quot;},{&amp;quot;s&amp;quot;:0,&amp;quot;n&amp;quot;:&amp;quot;fl&amp;quot;,&amp;quot;v&amp;quot;:11.2},{&amp;quot;s&amp;quot;:0,&amp;quot;n&amp;quot;:&amp;quot;il&amp;quot;,&amp;quot;v&amp;quot;:11.2},{&amp;quot;s&amp;quot;:0,&amp;quot;n&amp;quot;:&amp;quot;ir&amp;quot;,&amp;quot;v&amp;quot;:11.2},{&amp;quot;s&amp;quot;:0,&amp;quot;n&amp;quot;:&amp;quot;mt&amp;quot;,&amp;quot;v&amp;quot;:3.2},{&amp;quot;s&amp;quot;:0,&amp;quot;n&amp;quot;:&amp;quot;c&amp;quot;,&amp;quot;v&amp;quot;:&amp;quot;#000000ff&amp;quot;,&amp;quot;e&amp;quot;:23},{&amp;quot;s&amp;quot;:0,&amp;quot;n&amp;quot;:&amp;quot;fc&amp;quot;,&amp;quot;v&amp;quot;:&amp;quot;Regular&amp;quot;,&amp;quot;e&amp;quot;:23},{&amp;quot;s&amp;quot;:0,&amp;quot;n&amp;quot;:&amp;quot;fid&amp;quot;,&amp;quot;v&amp;quot;:2,&amp;quot;e&amp;quot;:23},{&amp;quot;s&amp;quot;:0,&amp;quot;n&amp;quot;:&amp;quot;s&amp;quot;,&amp;quot;v&amp;quot;:17.77777777777778,&amp;quot;e&amp;quot;:23}]}&quot; data-lucid-type=&quot;application/vnd.lucid.text&quot;&gt;&lt;font color=&quot;#ffffff&quot;&gt;&lt;span style=&quot;font-size: 13.3333px;&quot;&gt;password:&lt;/span&gt;&lt;span style=&quot;font-size: 13.3333px;&quot;&gt; &lt;/span&gt;&lt;span style=&quot;font-size: 13.3333px;&quot;&gt;varchar(255)&lt;/span&gt;&lt;/font&gt;&lt;/span&gt;" style="text;strokeColor=none;fillColor=none;align=left;verticalAlign=middle;spacingLeft=4;spacingRight=4;overflow=hidden;points=[[0,0.5],[1,0.5]];portConstraint=eastwest;rotatable=0;whiteSpace=wrap;html=1;" parent="lYEQsUIjW6Sv9lBk3dD8-2" vertex="1">
                    <mxGeometry y="150" width="160" height="30" as="geometry"/>
                </mxCell>
                <mxCell id="lYEQsUIjW6Sv9lBk3dD8-9" value="&lt;span data-lucid-content=&quot;{&amp;quot;t&amp;quot;:&amp;quot;firstname: varchar(255)&amp;quot;,&amp;quot;m&amp;quot;:[{&amp;quot;s&amp;quot;:0,&amp;quot;n&amp;quot;:&amp;quot;a&amp;quot;,&amp;quot;v&amp;quot;:&amp;quot;center&amp;quot;},{&amp;quot;s&amp;quot;:0,&amp;quot;n&amp;quot;:&amp;quot;fl&amp;quot;,&amp;quot;v&amp;quot;:11.2},{&amp;quot;s&amp;quot;:0,&amp;quot;n&amp;quot;:&amp;quot;il&amp;quot;,&amp;quot;v&amp;quot;:11.2},{&amp;quot;s&amp;quot;:0,&amp;quot;n&amp;quot;:&amp;quot;ir&amp;quot;,&amp;quot;v&amp;quot;:11.2},{&amp;quot;s&amp;quot;:0,&amp;quot;n&amp;quot;:&amp;quot;mt&amp;quot;,&amp;quot;v&amp;quot;:3.2},{&amp;quot;s&amp;quot;:0,&amp;quot;n&amp;quot;:&amp;quot;c&amp;quot;,&amp;quot;v&amp;quot;:&amp;quot;#000000ff&amp;quot;,&amp;quot;e&amp;quot;:23},{&amp;quot;s&amp;quot;:0,&amp;quot;n&amp;quot;:&amp;quot;fc&amp;quot;,&amp;quot;v&amp;quot;:&amp;quot;Regular&amp;quot;,&amp;quot;e&amp;quot;:23},{&amp;quot;s&amp;quot;:0,&amp;quot;n&amp;quot;:&amp;quot;fid&amp;quot;,&amp;quot;v&amp;quot;:2,&amp;quot;e&amp;quot;:23},{&amp;quot;s&amp;quot;:0,&amp;quot;n&amp;quot;:&amp;quot;s&amp;quot;,&amp;quot;v&amp;quot;:17.77777777777778,&amp;quot;e&amp;quot;:23}]}&quot; data-lucid-type=&quot;application/vnd.lucid.text&quot;&gt;&lt;font color=&quot;#ffffff&quot;&gt;&lt;span style=&quot;font-size: 13.3333px;&quot;&gt;imageUrl:&lt;/span&gt;&lt;span style=&quot;font-size: 13.3333px;&quot;&gt; &lt;/span&gt;&lt;span style=&quot;font-size: 13.3333px;&quot;&gt;varchar(255)&lt;/span&gt;&lt;/font&gt;&lt;/span&gt;" style="text;strokeColor=none;fillColor=none;align=left;verticalAlign=middle;spacingLeft=4;spacingRight=4;overflow=hidden;points=[[0,0.5],[1,0.5]];portConstraint=eastwest;rotatable=0;whiteSpace=wrap;html=1;" parent="lYEQsUIjW6Sv9lBk3dD8-2" vertex="1">
                    <mxGeometry y="180" width="160" height="30" as="geometry"/>
                </mxCell>
                <mxCell id="lYEQsUIjW6Sv9lBk3dD8-10" value="&lt;span data-lucid-content=&quot;{&amp;quot;t&amp;quot;:&amp;quot;firstname: varchar(255)&amp;quot;,&amp;quot;m&amp;quot;:[{&amp;quot;s&amp;quot;:0,&amp;quot;n&amp;quot;:&amp;quot;a&amp;quot;,&amp;quot;v&amp;quot;:&amp;quot;center&amp;quot;},{&amp;quot;s&amp;quot;:0,&amp;quot;n&amp;quot;:&amp;quot;fl&amp;quot;,&amp;quot;v&amp;quot;:11.2},{&amp;quot;s&amp;quot;:0,&amp;quot;n&amp;quot;:&amp;quot;il&amp;quot;,&amp;quot;v&amp;quot;:11.2},{&amp;quot;s&amp;quot;:0,&amp;quot;n&amp;quot;:&amp;quot;ir&amp;quot;,&amp;quot;v&amp;quot;:11.2},{&amp;quot;s&amp;quot;:0,&amp;quot;n&amp;quot;:&amp;quot;mt&amp;quot;,&amp;quot;v&amp;quot;:3.2},{&amp;quot;s&amp;quot;:0,&amp;quot;n&amp;quot;:&amp;quot;c&amp;quot;,&amp;quot;v&amp;quot;:&amp;quot;#000000ff&amp;quot;,&amp;quot;e&amp;quot;:23},{&amp;quot;s&amp;quot;:0,&amp;quot;n&amp;quot;:&amp;quot;fc&amp;quot;,&amp;quot;v&amp;quot;:&amp;quot;Regular&amp;quot;,&amp;quot;e&amp;quot;:23},{&amp;quot;s&amp;quot;:0,&amp;quot;n&amp;quot;:&amp;quot;fid&amp;quot;,&amp;quot;v&amp;quot;:2,&amp;quot;e&amp;quot;:23},{&amp;quot;s&amp;quot;:0,&amp;quot;n&amp;quot;:&amp;quot;s&amp;quot;,&amp;quot;v&amp;quot;:17.77777777777778,&amp;quot;e&amp;quot;:23}]}&quot; data-lucid-type=&quot;application/vnd.lucid.text&quot;&gt;&lt;font color=&quot;#ffffff&quot;&gt;&lt;span style=&quot;font-size: 13.3333px;&quot;&gt;createdAt:&lt;/span&gt;&lt;span style=&quot;font-size: 13.3333px;&quot;&gt;&amp;nbsp;datetime&lt;/span&gt;&lt;/font&gt;&lt;/span&gt;" style="text;strokeColor=none;fillColor=none;align=left;verticalAlign=middle;spacingLeft=4;spacingRight=4;overflow=hidden;points=[[0,0.5],[1,0.5]];portConstraint=eastwest;rotatable=0;whiteSpace=wrap;html=1;" parent="lYEQsUIjW6Sv9lBk3dD8-2" vertex="1">
                    <mxGeometry y="210" width="160" height="30" as="geometry"/>
                </mxCell>
                <mxCell id="lYEQsUIjW6Sv9lBk3dD8-11" value="&lt;span data-lucid-content=&quot;{&amp;quot;t&amp;quot;:&amp;quot;firstname: varchar(255)&amp;quot;,&amp;quot;m&amp;quot;:[{&amp;quot;s&amp;quot;:0,&amp;quot;n&amp;quot;:&amp;quot;a&amp;quot;,&amp;quot;v&amp;quot;:&amp;quot;center&amp;quot;},{&amp;quot;s&amp;quot;:0,&amp;quot;n&amp;quot;:&amp;quot;fl&amp;quot;,&amp;quot;v&amp;quot;:11.2},{&amp;quot;s&amp;quot;:0,&amp;quot;n&amp;quot;:&amp;quot;il&amp;quot;,&amp;quot;v&amp;quot;:11.2},{&amp;quot;s&amp;quot;:0,&amp;quot;n&amp;quot;:&amp;quot;ir&amp;quot;,&amp;quot;v&amp;quot;:11.2},{&amp;quot;s&amp;quot;:0,&amp;quot;n&amp;quot;:&amp;quot;mt&amp;quot;,&amp;quot;v&amp;quot;:3.2},{&amp;quot;s&amp;quot;:0,&amp;quot;n&amp;quot;:&amp;quot;c&amp;quot;,&amp;quot;v&amp;quot;:&amp;quot;#000000ff&amp;quot;,&amp;quot;e&amp;quot;:23},{&amp;quot;s&amp;quot;:0,&amp;quot;n&amp;quot;:&amp;quot;fc&amp;quot;,&amp;quot;v&amp;quot;:&amp;quot;Regular&amp;quot;,&amp;quot;e&amp;quot;:23},{&amp;quot;s&amp;quot;:0,&amp;quot;n&amp;quot;:&amp;quot;fid&amp;quot;,&amp;quot;v&amp;quot;:2,&amp;quot;e&amp;quot;:23},{&amp;quot;s&amp;quot;:0,&amp;quot;n&amp;quot;:&amp;quot;s&amp;quot;,&amp;quot;v&amp;quot;:17.77777777777778,&amp;quot;e&amp;quot;:23}]}&quot; data-lucid-type=&quot;application/vnd.lucid.text&quot;&gt;&lt;font color=&quot;#ffffff&quot;&gt;&lt;span style=&quot;font-size: 13.3333px;&quot;&gt;upadetAt:&lt;/span&gt;&lt;span style=&quot;font-size: 13.3333px;&quot;&gt;&amp;nbsp;datetime&lt;/span&gt;&lt;/font&gt;&lt;/span&gt;" style="text;strokeColor=none;fillColor=none;align=left;verticalAlign=middle;spacingLeft=4;spacingRight=4;overflow=hidden;points=[[0,0.5],[1,0.5]];portConstraint=eastwest;rotatable=0;whiteSpace=wrap;html=1;" parent="lYEQsUIjW6Sv9lBk3dD8-2" vertex="1">
                    <mxGeometry y="240" width="160" height="30" as="geometry"/>
                </mxCell>
                <mxCell id="lYEQsUIjW6Sv9lBk3dD8-12" value="&lt;font color=&quot;#ffffff&quot;&gt;&lt;span style=&quot;font-size: 13.3333px;&quot;&gt;deleted: tinyint(1)&lt;/span&gt;&lt;/font&gt;" style="text;strokeColor=none;fillColor=none;align=left;verticalAlign=middle;spacingLeft=4;spacingRight=4;overflow=hidden;points=[[0,0.5],[1,0.5]];portConstraint=eastwest;rotatable=0;whiteSpace=wrap;html=1;" parent="lYEQsUIjW6Sv9lBk3dD8-2" vertex="1">
                    <mxGeometry y="270" width="160" height="30" as="geometry"/>
                </mxCell>
                <mxCell id="lYEQsUIjW6Sv9lBk3dD8-13" value="&lt;font color=&quot;#ffffff&quot;&gt;&lt;span style=&quot;font-size: 13.3333px;&quot;&gt;admin: tinyint(1)&lt;/span&gt;&lt;/font&gt;" style="text;strokeColor=none;fillColor=none;align=left;verticalAlign=middle;spacingLeft=4;spacingRight=4;overflow=hidden;points=[[0,0.5],[1,0.5]];portConstraint=eastwest;rotatable=0;whiteSpace=wrap;html=1;" parent="lYEQsUIjW6Sv9lBk3dD8-2" vertex="1">
                    <mxGeometry y="300" width="160" height="30" as="geometry"/>
                </mxCell>
                <mxCell id="lYEQsUIjW6Sv9lBk3dD8-14" value="&lt;span data-lucid-content=&quot;{&amp;quot;t&amp;quot;:&amp;quot;firstname: varchar(255)&amp;quot;,&amp;quot;m&amp;quot;:[{&amp;quot;s&amp;quot;:0,&amp;quot;n&amp;quot;:&amp;quot;a&amp;quot;,&amp;quot;v&amp;quot;:&amp;quot;center&amp;quot;},{&amp;quot;s&amp;quot;:0,&amp;quot;n&amp;quot;:&amp;quot;fl&amp;quot;,&amp;quot;v&amp;quot;:11.2},{&amp;quot;s&amp;quot;:0,&amp;quot;n&amp;quot;:&amp;quot;il&amp;quot;,&amp;quot;v&amp;quot;:11.2},{&amp;quot;s&amp;quot;:0,&amp;quot;n&amp;quot;:&amp;quot;ir&amp;quot;,&amp;quot;v&amp;quot;:11.2},{&amp;quot;s&amp;quot;:0,&amp;quot;n&amp;quot;:&amp;quot;mt&amp;quot;,&amp;quot;v&amp;quot;:3.2},{&amp;quot;s&amp;quot;:0,&amp;quot;n&amp;quot;:&amp;quot;c&amp;quot;,&amp;quot;v&amp;quot;:&amp;quot;#000000ff&amp;quot;,&amp;quot;e&amp;quot;:23},{&amp;quot;s&amp;quot;:0,&amp;quot;n&amp;quot;:&amp;quot;fc&amp;quot;,&amp;quot;v&amp;quot;:&amp;quot;Regular&amp;quot;,&amp;quot;e&amp;quot;:23},{&amp;quot;s&amp;quot;:0,&amp;quot;n&amp;quot;:&amp;quot;fid&amp;quot;,&amp;quot;v&amp;quot;:2,&amp;quot;e&amp;quot;:23},{&amp;quot;s&amp;quot;:0,&amp;quot;n&amp;quot;:&amp;quot;s&amp;quot;,&amp;quot;v&amp;quot;:17.77777777777778,&amp;quot;e&amp;quot;:23}]}&quot; data-lucid-type=&quot;application/vnd.lucid.text&quot;&gt;&lt;font color=&quot;#ffffff&quot;&gt;&lt;span style=&quot;font-size: 13.3333px;&quot;&gt;status:&lt;/span&gt;&lt;span style=&quot;font-size: 13.3333px;&quot;&gt; &lt;/span&gt;&lt;span style=&quot;font-size: 13.3333px;&quot;&gt;varchar(255)&lt;/span&gt;&lt;/font&gt;&lt;/span&gt;" style="text;strokeColor=none;fillColor=none;align=left;verticalAlign=middle;spacingLeft=4;spacingRight=4;overflow=hidden;points=[[0,0.5],[1,0.5]];portConstraint=eastwest;rotatable=0;whiteSpace=wrap;html=1;" parent="lYEQsUIjW6Sv9lBk3dD8-2" vertex="1">
                    <mxGeometry y="330" width="160" height="30" as="geometry"/>
                </mxCell>
                <mxCell id="lYEQsUIjW6Sv9lBk3dD8-15" value="Posts" style="swimlane;fontStyle=0;childLayout=stackLayout;horizontal=1;startSize=30;horizontalStack=0;resizeParent=1;resizeParentMax=0;resizeLast=0;collapsible=1;marginBottom=0;whiteSpace=wrap;html=1;fontColor=#FFFFFF;" parent="1" vertex="1">
                    <mxGeometry x="550" y="110" width="180" height="210" as="geometry"/>
                </mxCell>
                <mxCell id="lYEQsUIjW6Sv9lBk3dD8-16" value="&lt;span style=&quot;font-size: 13.3333px;&quot;&gt;id : int (11) PK&lt;/span&gt;" style="text;strokeColor=none;fillColor=none;align=left;verticalAlign=middle;spacingLeft=4;spacingRight=4;overflow=hidden;points=[[0,0.5],[1,0.5]];portConstraint=eastwest;rotatable=0;whiteSpace=wrap;html=1;fontColor=#FFFFFF;" parent="lYEQsUIjW6Sv9lBk3dD8-15" vertex="1">
                    <mxGeometry y="30" width="180" height="30" as="geometry"/>
                </mxCell>
                <mxCell id="lYEQsUIjW6Sv9lBk3dD8-19" value="&lt;span style=&quot;font-size: 13.3333px;&quot;&gt;userId : int (11) FK&lt;/span&gt;" style="text;strokeColor=none;fillColor=none;align=left;verticalAlign=middle;spacingLeft=4;spacingRight=4;overflow=hidden;points=[[0,0.5],[1,0.5]];portConstraint=eastwest;rotatable=0;whiteSpace=wrap;html=1;fontColor=#FFFFFF;" parent="lYEQsUIjW6Sv9lBk3dD8-15" vertex="1">
                    <mxGeometry y="60" width="180" height="30" as="geometry"/>
                </mxCell>
                <mxCell id="lYEQsUIjW6Sv9lBk3dD8-17" value="content: text" style="text;strokeColor=none;fillColor=none;align=left;verticalAlign=middle;spacingLeft=4;spacingRight=4;overflow=hidden;points=[[0,0.5],[1,0.5]];portConstraint=eastwest;rotatable=0;whiteSpace=wrap;html=1;fontColor=#FFFFFF;" parent="lYEQsUIjW6Sv9lBk3dD8-15" vertex="1">
                    <mxGeometry y="90" width="180" height="30" as="geometry"/>
                </mxCell>
                <mxCell id="lYEQsUIjW6Sv9lBk3dD8-18" value="&lt;span style=&quot;font-size: 13.3333px;&quot;&gt;imageUrl:&lt;/span&gt;&lt;span style=&quot;font-size: 13.3333px;&quot;&gt;&amp;nbsp;&lt;/span&gt;&lt;span style=&quot;font-size: 13.3333px;&quot;&gt;varchar(255)&lt;/span&gt;" style="text;strokeColor=none;fillColor=none;align=left;verticalAlign=middle;spacingLeft=4;spacingRight=4;overflow=hidden;points=[[0,0.5],[1,0.5]];portConstraint=eastwest;rotatable=0;whiteSpace=wrap;html=1;fontColor=#FFFFFF;" parent="lYEQsUIjW6Sv9lBk3dD8-15" vertex="1">
                    <mxGeometry y="120" width="180" height="30" as="geometry"/>
                </mxCell>
                <mxCell id="lYEQsUIjW6Sv9lBk3dD8-20" value="&lt;span style=&quot;font-size: 13.3333px;&quot;&gt;createdAt:&lt;/span&gt;&lt;span style=&quot;font-size: 13.3333px;&quot;&gt;&amp;nbsp;datetime&lt;/span&gt;" style="text;strokeColor=none;fillColor=none;align=left;verticalAlign=middle;spacingLeft=4;spacingRight=4;overflow=hidden;points=[[0,0.5],[1,0.5]];portConstraint=eastwest;rotatable=0;whiteSpace=wrap;html=1;fontColor=#FFFFFF;" parent="lYEQsUIjW6Sv9lBk3dD8-15" vertex="1">
                    <mxGeometry y="150" width="180" height="30" as="geometry"/>
                </mxCell>
                <mxCell id="lYEQsUIjW6Sv9lBk3dD8-21" value="&lt;span style=&quot;font-size: 13.3333px;&quot;&gt;updatedAt:&lt;/span&gt;&lt;span style=&quot;font-size: 13.3333px;&quot;&gt;&amp;nbsp;datetime&lt;/span&gt;" style="text;strokeColor=none;fillColor=none;align=left;verticalAlign=middle;spacingLeft=4;spacingRight=4;overflow=hidden;points=[[0,0.5],[1,0.5]];portConstraint=eastwest;rotatable=0;whiteSpace=wrap;html=1;fontColor=#FFFFFF;" parent="lYEQsUIjW6Sv9lBk3dD8-15" vertex="1">
                    <mxGeometry y="180" width="180" height="30" as="geometry"/>
                </mxCell>
                <mxCell id="lYEQsUIjW6Sv9lBk3dD8-22" value="" style="endArrow=classic;html=1;fontColor=#FFFFFF;exitX=1;exitY=0.667;exitDx=0;exitDy=0;exitPerimeter=0;entryX=0;entryY=0.333;entryDx=0;entryDy=0;entryPerimeter=0;strokeWidth=3;" parent="1" source="lYEQsUIjW6Sv9lBk3dD8-9" target="lYEQsUIjW6Sv9lBk3dD8-18" edge="1">
                    <mxGeometry width="50" height="50" relative="1" as="geometry">
                        <mxPoint x="250" y="240" as="sourcePoint"/>
                        <mxPoint x="540" y="240" as="targetPoint"/>
                    </mxGeometry>
                </mxCell>
                <mxCell id="lYEQsUIjW6Sv9lBk3dD8-23" value="0.n" style="text;html=1;strokeColor=none;fillColor=none;align=center;verticalAlign=middle;whiteSpace=wrap;rounded=0;fontColor=#FFFFFF;" parent="1" vertex="1">
                    <mxGeometry x="240" y="205" width="60" height="30" as="geometry"/>
                </mxCell>
                <mxCell id="lYEQsUIjW6Sv9lBk3dD8-24" value="1.1" style="text;html=1;strokeColor=none;fillColor=none;align=center;verticalAlign=middle;whiteSpace=wrap;rounded=0;fontColor=#FFFFFF;" parent="1" vertex="1">
                    <mxGeometry x="480" y="205" width="60" height="30" as="geometry"/>
                </mxCell>
            </root>
        </mxGraphModel>
    </diagram>
</mxfile>